<svg xmlns="http://www.w3.org/2000/svg" width="20" height="20" viewBox="0 0 20 20">
    <g fill="none" fill-rule="evenodd">
        <g>
            <g>
                <g>
                    <path fill="#252729" d="M10 1.667c4.602 0 8.333 3.73 8.333 8.333 0 4.602-3.73 8.333-8.333 8.333-4.602 0-8.333-3.73-8.333-8.333 0-4.602 3.73-8.333 8.333-8.333zm-.623 11.146c-.772.02-1.61.075-2.513.165.381 1.409 1.043 2.798 1.984 4.168l-.118-.176c.212.038.427.067.645.086zm1.246 0l.003 4.243c.217-.019.432-.048.643-.086l-.118.176c.942-1.37 1.604-2.759 1.989-4.168-.907-.09-1.745-.145-2.517-.165zm3.77.307l-.082.31c-.282.994-.688 1.976-1.217 2.943 1.33-.646 2.426-1.696 3.131-2.99-.636-.102-1.246-.189-1.831-.263zm-8.788 0l-.053.007c-.674.086-1.38.19-2.118.31l.34-.055c.706 1.295 1.802 2.345 3.132 2.992-.584-1.07-1.018-2.154-1.301-3.254zm-2.34-5.318l-.042.132c-.2.654-.306 1.347-.306 2.066 0 .767.122 1.506.347 2.199.727-.12 1.424-.221 2.091-.307-.098-.625-.147-1.256-.147-1.892 0-.636.049-1.266.145-1.893-.666-.085-1.362-.187-2.088-.305zm13.47 0l.032-.005c-.737.12-1.444.224-2.12.31.096.627.145 1.257.145 1.893 0 .636-.049 1.267-.145 1.894.676.085 1.383.189 2.12.309l-.031-.004c.225-.693.347-1.432.347-2.199 0-.767-.122-1.506-.347-2.198zm-10.137.45l-.034.214c-.07.509-.106 1.02-.106 1.534 0 .587.046 1.17.138 1.75 1.002-.105 1.928-.166 2.78-.187V8.437c-.852-.02-1.778-.082-2.778-.185zm6.806-.001l-.312.032c-.882.084-1.705.136-2.468.154v3.126c.852.02 1.778.082 2.778.185.094-.578.14-1.161.14-1.748s-.046-1.17-.138-1.75zM8.828 3.013l-.1.018c-.877 1.313-1.5 2.643-1.868 3.991.908.09 1.745.145 2.517.165l-.002-4.243c-.184.016-.367.04-.547.07zm1.798-.07l-.003 4.244c.772-.02 1.61-.075 2.514-.165-.366-1.348-.988-2.678-1.865-3.99-.213-.04-.428-.069-.646-.088zm-3.72.683l-.021.01c-1.32.648-2.409 1.694-3.11 2.98l-.341-.052c.758.123 1.482.229 2.172.316.282-1.1.716-2.185 1.3-3.254zm6.188 0l.181.341c.494.959.867 1.93 1.12 2.913.584-.074 1.194-.161 1.828-.261-.703-1.296-1.8-2.346-3.129-2.993z" transform="translate(-20 -142) translate(4 136) translate(16 6)"/>
                </g>
            </g>
        </g>
    </g>
</svg>
