<svg xmlns="http://www.w3.org/2000/svg" xmlns:xlink="http://www.w3.org/1999/xlink" width="132" height="32" viewBox="0 0 132 32">
    <defs>
        <path id="ihw9lg0epa" d="M0.042 0.009L21.463 0.009 21.463 21.489 0.042 21.489z"/>
        <path id="4xlefmlp6c" d="M0 0.058L16.314 0.058 16.314 30.35 0 30.35z"/>
    </defs>
    <g fill="none" fill-rule="evenodd">
        <path fill="#FF5537" d="M17.752 21.374V10.618h7.174v10.559c0 2.866.956 4.3 2.87 4.3 1.913 0 2.87-1.434 2.87-4.3V10.618h7.173v10.756c0 6.688-3.348 10.033-10.043 10.033-6.696 0-10.044-3.345-10.044-10.033M46.649 21.781L46.649 30.706 39.474 30.706 39.474 10.618 46.649 10.618 52.388 19.543 52.388 10.618 59.562 10.618 59.562 30.706 52.388 30.706z"/>
        <g transform="translate(77.781 10.151)">
            <mask id="kmheq4xa0b" fill="#fff">
                <use xlink:href="#ihw9lg0epa"/>
            </mask>
            <path fill="#FF5537" d="M10.753 15.572c2.137 0 3.206-1.608 3.206-4.823 0-3.215-1.069-4.823-3.206-4.823-2.138 0-3.207 1.608-3.207 4.823 0 3.215 1.07 4.823 3.207 4.823m0-15.563c7.14 0 10.71 3.58 10.71 10.74s-3.57 10.74-10.71 10.74c-7.14 0-10.71-3.58-10.71-10.74S3.612.01 10.752.01" mask="url(#kmheq4xa0b)"/>
        </g>
        <path fill="#FF5537" d="M114.803 20.662L111.223 30.706 105.495 30.706 98.336 10.618 105.495 10.618 108.359 20.662 111.223 10.618 118.383 10.618 121.247 20.662 124.11 10.618 131.27 10.618 124.11 30.706 118.383 30.706zM60.964 13.08c.273-.47.493-.897.934-1.354.44-.456.957-.847 1.55-1.171.592-.324 1.237-.589 1.936-.795.7-.206 1.444-.31 2.234-.31 1.519 0 2.81.266 3.873.797 1.064.53 1.922 1.217 2.576 2.057.653.84 1.124 1.807 1.412 2.898.289 1.091.433 2.182.433 3.273v11.997h-7.486v-10.41c0-.619-.053-1.209-.16-1.77-.107-.56-.283-1.055-.526-1.482-.244-.428-.588-.768-1.03-1.019-.442-.25-.998-.376-1.67-.376-1.718 0-3.017 1.184-4.076 2.413V13.08z"/>
        <g transform="translate(0 .107)">
            <mask id="cj94lb1lpd" fill="#fff">
                <use xlink:href="#4xlefmlp6c"/>
            </mask>
            <path fill="#FF5537" d="M3.291 6.593c.307-1.278.836-2.401 1.587-3.371.75-.97 1.763-1.74 3.035-2.31 1.273-.568 2.86-.854 4.763-.854.645 0 1.282.04 1.911.116.63.077 1.205.193 1.727.347l-.507 6.008c-.276-.092-.598-.169-.967-.23-.368-.062-.737-.093-1.105-.093-.706 0-1.274.124-1.704.37-.43.245-.766.577-1.013.991-.42.704-.59 1.68-.645 2.952h5.366v5.983h-5.366V30.35H2.832V16.502H0v-5.983h2.832c.047-2.4.46-3.926.46-3.926" mask="url(#cj94lb1lpd)"/>
        </g>
    </g>
</svg>
